<svg xmlns="http://www.w3.org/2000/svg" xmlns:xlink="http://www.w3.org/1999/xlink" width="400" zoomAndPan="magnify" viewBox="0 0 300 89.999999" height="120" preserveAspectRatio="xMidYMid meet" version="1.0"><defs><g/></defs><g fill="#009246" fill-opacity="1"><g transform="translate(9.000001, 51.963594)"><g><path d="M 35.785156 -38.242188 L 5.058594 -38.242188 C 4.640625 -38.242188 3.714844 -38.105469 3.714844 -36.664062 L 3.714844 -33.046875 C 3.714844 -31.515625 4.640625 -31.375 5.058594 -31.375 L 16.988281 -31.375 L 16.988281 -1.578125 C 16.988281 -0.140625 17.914062 0 18.285156 0 L 22.554688 0 C 22.972656 0 23.855469 -0.140625 23.855469 -1.578125 L 23.855469 -31.375 L 35.785156 -31.375 C 36.203125 -31.375 37.128906 -31.515625 37.128906 -33.046875 L 37.128906 -36.664062 C 37.128906 -38.105469 36.203125 -38.242188 35.785156 -38.242188 Z M 35.785156 -38.242188 "/></g></g></g><g fill="#009246" fill-opacity="1"><g transform="translate(52.157268, 51.963594)"><g><path d="M 31.605469 -8.308594 L 15.269531 -8.308594 C 14.296875 -8.308594 13.507812 -8.445312 12.855469 -8.632812 C 12.253906 -8.863281 11.835938 -9.191406 11.464844 -9.652344 C 11.09375 -10.164062 10.8125 -10.859375 10.675781 -11.742188 C 10.628906 -11.972656 10.628906 -12.300781 10.582031 -12.53125 C 10.582031 -12.53125 10.628906 -15.871094 10.675781 -15.871094 L 31.421875 -15.871094 C 31.792969 -15.871094 32.722656 -16.058594 32.722656 -17.496094 L 32.722656 -21.164062 C 32.722656 -22.601562 31.792969 -22.742188 31.421875 -22.742188 L 7.472656 -22.695312 C 6.125 -22.601562 4.964844 -21.90625 4.316406 -20.746094 C 4.085938 -20.375 3.898438 -20.003906 3.804688 -19.585938 L 3.714844 -13.738281 L 3.714844 -13.507812 C 3.757812 -11.324219 3.992188 -9.46875 4.316406 -7.9375 C 4.734375 -6.078125 5.429688 -4.546875 6.3125 -3.386719 C 7.242188 -2.179688 8.445312 -1.347656 9.933594 -0.835938 C 11.371094 -0.277344 13.089844 -0.046875 15.128906 -0.046875 L 31.605469 -0.046875 C 32.023438 -0.046875 32.953125 -0.1875 32.953125 -1.625 L 32.953125 -6.730469 C 32.953125 -8.167969 32.023438 -8.308594 31.605469 -8.308594 Z M 31.652344 -38.335938 L 4.964844 -38.335938 C 4.59375 -38.335938 3.714844 -38.152344 3.714844 -36.664062 L 3.714844 -33.046875 C 3.714844 -31.605469 4.59375 -31.46875 4.964844 -31.46875 L 31.652344 -31.421875 C 32.023438 -31.421875 32.953125 -31.605469 32.953125 -33.046875 L 32.953125 -36.710938 C 32.953125 -38.152344 32.023438 -38.335938 31.652344 -38.335938 Z M 31.652344 -38.335938 "/></g></g></g><g fill="#009246" fill-opacity="1"><g transform="translate(91.138035, 51.963594)"><g><path d="M 28.589844 -33.925781 C 28.496094 -34.160156 28.40625 -34.4375 28.3125 -34.625 C 27.570312 -37.035156 25.339844 -38.753906 22.789062 -38.753906 C 21.628906 -38.753906 20.515625 -38.429688 19.585938 -37.78125 C 19.308594 -37.640625 19.074219 -37.453125 18.890625 -37.316406 C 18.195312 -36.710938 17.496094 -35.597656 16.847656 -33.925781 L 3.898438 -1.761719 C 3.757812 -1.347656 3.714844 -0.929688 3.804688 -0.648438 C 3.851562 -0.371094 4.085938 0.046875 4.828125 0.046875 L 9.933594 0.046875 C 10.535156 0.046875 11 -0.324219 11.230469 -0.929688 L 13.878906 -7.566406 L 24.042969 -7.566406 C 24.550781 -7.566406 25.015625 -7.796875 25.25 -8.214844 C 25.527344 -8.585938 25.574219 -9.097656 25.433594 -9.5625 L 23.761719 -13.691406 C 23.53125 -14.25 23.019531 -14.621094 22.417969 -14.621094 L 16.660156 -14.621094 L 22.601562 -29.65625 C 22.648438 -29.75 22.695312 -29.796875 22.695312 -29.796875 L 22.882812 -29.796875 C 22.882812 -29.796875 22.882812 -29.796875 22.925781 -29.703125 L 34.4375 -0.976562 C 34.671875 -0.324219 35.132812 0.046875 35.785156 0.046875 L 40.75 0.046875 C 41.492188 0.046875 41.679688 -0.417969 41.769531 -0.648438 C 41.863281 -0.929688 41.816406 -1.347656 41.632812 -1.761719 Z M 28.589844 -33.925781 "/></g></g></g><g fill="#009246" fill-opacity="1"><g transform="translate(139.028688, 51.963594)"><g><path d="M 42.46875 -38.242188 L 38.289062 -38.242188 C 37.640625 -38.242188 37.128906 -38.199219 36.664062 -38.058594 C 36.203125 -37.917969 35.785156 -37.6875 35.414062 -37.363281 C 35.085938 -36.992188 34.761719 -36.574219 34.484375 -36.015625 C 34.207031 -35.460938 33.972656 -34.761719 33.695312 -33.882812 L 25.480469 -13.367188 C 25.433594 -13.179688 25.386719 -13.179688 25.339844 -13.179688 L 24.878906 -13.179688 C 24.878906 -13.179688 24.785156 -13.179688 24.738281 -13.367188 L 16.570312 -33.882812 C 16.289062 -34.761719 16.011719 -35.460938 15.78125 -36.015625 C 15.5 -36.574219 15.175781 -36.992188 14.851562 -37.363281 C 14.480469 -37.6875 14.015625 -37.917969 13.550781 -38.058594 C 13.089844 -38.199219 12.53125 -38.242188 11.929688 -38.242188 L 7.65625 -38.242188 C 6.078125 -38.242188 5.011719 -37.734375 4.457031 -36.757812 C 3.945312 -35.875 3.714844 -34.390625 3.714844 -32.257812 L 3.714844 -1.578125 C 3.714844 -0.140625 4.640625 0.046875 5.058594 0.046875 L 9.050781 0.046875 C 9.46875 0.046875 10.351562 -0.140625 10.351562 -1.578125 L 10.351562 -29.472656 C 10.351562 -29.519531 10.351562 -29.566406 10.351562 -29.566406 L 10.582031 -29.566406 C 10.628906 -29.566406 10.675781 -29.566406 10.722656 -29.425781 L 18.65625 -9.792969 C 18.984375 -8.816406 19.308594 -7.984375 19.632812 -7.285156 C 20.003906 -6.589844 20.375 -6.035156 20.746094 -5.570312 C 21.210938 -5.105469 21.675781 -4.734375 22.230469 -4.546875 C 22.789062 -4.363281 23.390625 -4.269531 24.089844 -4.269531 L 25.992188 -4.269531 C 26.6875 -4.269531 27.335938 -4.363281 27.847656 -4.546875 C 28.40625 -4.734375 28.914062 -5.105469 29.332031 -5.570312 C 29.703125 -6.035156 30.121094 -6.589844 30.445312 -7.285156 C 30.769531 -7.984375 31.097656 -8.816406 31.421875 -9.792969 L 39.402344 -29.472656 C 39.402344 -29.566406 39.449219 -29.566406 39.496094 -29.566406 L 39.730469 -29.566406 C 39.730469 -29.566406 39.730469 -29.519531 39.730469 -29.472656 L 39.730469 -1.578125 C 39.730469 -0.140625 40.65625 0.046875 41.027344 0.046875 L 45.019531 0.046875 C 45.4375 0.046875 46.367188 -0.140625 46.367188 -1.578125 L 46.367188 -32.257812 C 46.367188 -34.390625 46.132812 -35.875 45.625 -36.757812 C 45.066406 -37.734375 44 -38.242188 42.46875 -38.242188 Z M 42.46875 -38.242188 "/></g></g></g><g fill="#009246" fill-opacity="1"><g transform="translate(191.420666, 51.963594)"><g/></g></g><g fill="#009246" fill-opacity="1"><g transform="translate(217.593438, 51.963594)"><g><path d="M 9.746094 -38.894531 L 4.78125 -38.894531 C 4.039062 -38.894531 3.714844 -38.476562 3.714844 -37.640625 L 3.714844 -33.277344 C 3.714844 -32.441406 4.039062 -32.070312 4.78125 -32.070312 L 6.21875 -32.070312 C 6.867188 -32.070312 7.195312 -31.652344 7.195312 -30.863281 L 7.195312 -1.207031 C 7.195312 -0.371094 7.519531 0.046875 8.214844 0.046875 L 12.996094 0.046875 C 13.691406 0.046875 14.015625 -0.371094 14.015625 -1.207031 L 14.015625 -34.160156 C 14.015625 -35.785156 13.691406 -36.992188 13.042969 -37.734375 C 12.390625 -38.523438 11.277344 -38.894531 9.746094 -38.894531 Z M 9.746094 -38.894531 "/></g></g></g><g fill="#009246" fill-opacity="1"><g transform="translate(237.640709, 51.963594)"><g><path d="M 24.878906 -37.222656 L 5.523438 -20.050781 C 4.78125 -19.445312 4.316406 -18.796875 4.085938 -18.101562 C 3.804688 -17.449219 3.714844 -16.570312 3.714844 -15.546875 L 3.714844 -11.511719 C 3.714844 -10.488281 3.945312 -9.699219 4.457031 -9.050781 C 4.917969 -8.445312 5.664062 -8.121094 6.683594 -8.121094 L 29.425781 -8.121094 L 29.425781 -1.207031 C 29.425781 -0.371094 29.796875 0.046875 30.492188 0.046875 L 35.273438 0.046875 C 35.96875 0.046875 36.339844 -0.371094 36.339844 -1.207031 L 36.339844 -8.121094 L 40.148438 -8.121094 C 40.796875 -8.121094 41.167969 -8.539062 41.167969 -9.328125 L 41.167969 -13.644531 C 41.167969 -14.480469 40.796875 -14.945312 40.148438 -14.945312 L 36.339844 -14.945312 L 36.339844 -33.230469 C 36.339844 -35.460938 35.96875 -36.992188 35.320312 -37.734375 C 34.671875 -38.523438 33.648438 -38.894531 32.257812 -38.894531 L 29.519531 -38.894531 C 28.449219 -38.894531 27.617188 -38.753906 27.011719 -38.523438 C 26.363281 -38.289062 25.667969 -37.824219 24.878906 -37.222656 Z M 11.371094 -15.316406 L 11.371094 -15.640625 C 11.371094 -15.964844 11.464844 -16.246094 11.648438 -16.429688 L 27.753906 -31.050781 C 28.125 -31.328125 28.449219 -31.46875 28.777344 -31.46875 L 29.054688 -31.46875 C 29.285156 -31.46875 29.425781 -31.28125 29.425781 -30.863281 L 29.425781 -14.945312 L 11.742188 -14.945312 C 11.511719 -14.945312 11.371094 -15.039062 11.371094 -15.316406 Z M 11.371094 -15.316406 "/></g></g></g></svg>